<svg width="35" height="36" fill="none" xmlns="http://www.w3.org/2000/svg"><path d="M26.845 6.559a2.1 2.1 0 100 4.2 2.1 2.1 0 000-4.2zm8.05 4.235a13.282 13.282 0 00-.805-4.253 8.645 8.645 0 00-2.03-3.097 8.226 8.226 0 00-3.098-2.013A12.775 12.775 0 0024.71.61C22.855.504 22.26.504 17.5.504s-5.355 0-7.21.105c-1.454.03-2.892.308-4.252.822A8.365 8.365 0 002.94 3.444 8.225 8.225 0 00.927 6.54a12.775 12.775 0 00-.822 4.253C0 12.649 0 13.244 0 18.004s0 5.355.105 7.21c.03 1.454.308 2.892.823 4.252a8.226 8.226 0 002.012 3.098 8.367 8.367 0 003.097 2.012c1.36.514 2.799.792 4.253.823 1.855.105 2.45.105 7.21.105s5.355 0 7.21-.105a12.778 12.778 0 004.252-.823 8.225 8.225 0 003.098-2.012 8.488 8.488 0 002.03-3.098c.499-1.364.771-2.8.805-4.252 0-1.855.105-2.45.105-7.21s0-5.355-.105-7.21zm-3.15 14.21a9.816 9.816 0 01-.595 3.255 5.355 5.355 0 01-1.313 2.012 5.585 5.585 0 01-2.012 1.313 9.82 9.82 0 01-3.255.595c-1.75.087-2.398.105-7 .105-4.603 0-5.25 0-7-.105a10.027 10.027 0 01-3.395-.525A5.724 5.724 0 015.25 30.34a5.25 5.25 0 01-1.295-2.012 9.695 9.695 0 01-.7-3.325c0-1.75-.105-2.398-.105-7 0-4.603 0-5.25.105-7a9.695 9.695 0 01.613-3.325A5.25 5.25 0 015.25 5.754a5.495 5.495 0 011.925-1.4 10.028 10.028 0 013.325-.595c1.75 0 2.398-.105 7-.105s5.25 0 7 .105a9.818 9.818 0 013.255.595 5.355 5.355 0 012.082 1.4 5.354 5.354 0 011.313 1.925c.389 1.065.59 2.19.595 3.325.087 1.75.105 2.397.105 7 0 4.602-.018 5.25-.105 7zM17.5 9.026a8.978 8.978 0 108.995 8.978A8.961 8.961 0 0017.5 9.026zm0 14.805a5.828 5.828 0 110-11.655 5.828 5.828 0 010 11.655z" fill="#F7DD7F"/></svg>