<svg width="57" height="57" fill="none" xmlns="http://www.w3.org/2000/svg"><circle cx="28.5" cy="28.61" r="26.165" stroke="#F7DD7F" stroke-width="4"/><path d="M36.85 28.61a8.35 8.35 0 11-16.7 0 8.35 8.35 0 0116.7 0zm-9.965 0a1.615 1.615 0 103.23 0 1.615 1.615 0 00-3.23 0z" fill="#F7DD7F"/><g filter="url(#a)" stroke="#D2D2D2" stroke-width="2"><path d="M11.172 13.95a22.697 22.697 0 00-5.235 12.189c0 .002.002.005.005.005v0a.005.005 0 00.005-.004 22.688 22.688 0 0116.38-19.362.005.005 0 00.004-.006v0a.005.005 0 00-.006-.004 22.697 22.697 0 00-11.153 7.182zM44.198 45.004A22.698 22.698 0 0050.68 33.43a.005.005 0 00-.004-.006v0a.005.005 0 00-.006.004 22.688 22.688 0 01-18.317 17.54.005.005 0 00-.004.006v0c0 .003.003.005.006.004a22.697 22.697 0 0011.843-5.974z"/><path d="M19.438 11.418a19.434 19.434 0 00-8.062 8 .004.004 0 00.002.007v0c.002 0 .004 0 .005-.002a19.427 19.427 0 0119.21-10.126.004.004 0 00.005-.004v0a.004.004 0 00-.003-.005 19.435 19.435 0 00-11.157 2.13zM35.713 46.657a19.434 19.434 0 008.855-7.114.004.004 0 00-.001-.006v0a.004.004 0 00-.006.002 19.426 19.426 0 01-20.165 8.059.004.004 0 00-.005.003v0c0 .002.001.005.003.005 3.784.818 7.725.487 11.319-.95z"/><path d="M27.024 11.883a16.792 16.792 0 00-9.097 3.681.004.004 0 000 .005v0a.004.004 0 00.005.001 16.784 16.784 0 0118.69-1.649c.002.001.004 0 .005-.001v0a.004.004 0 00-.001-.005 16.793 16.793 0 00-9.602-2.032zM28.216 45.4a16.793 16.793 0 009.433-2.709.004.004 0 00.001-.005v0c0-.002-.003-.002-.005-.001a16.786 16.786 0 01-18.76-.317.004.004 0 00-.005 0v0a.004.004 0 000 .006 16.792 16.792 0 009.337 3.026z"/></g><defs><filter id="a" x="1.837" y="2.668" width="52.944" height="52.411" filterUnits="userSpaceOnUse" color-interpolation-filters="sRGB"><feFlood flood-opacity="0" result="BackgroundImageFix"/><feBlend in="SourceGraphic" in2="BackgroundImageFix" result="shape"/><feGaussianBlur stdDeviation="1.55" result="effect1_foregroundBlur_4006_151"/></filter></defs></svg>