<svg width="80" height="80" fill="none" xmlns="http://www.w3.org/2000/svg"><circle cx="39.794" cy="40" r="37.794" stroke="#F7DD7F" stroke-width="4"/><path d="M52.124 40c0 6.661-5.4 12.062-12.062 12.062C33.4 52.062 28 46.662 28 40c0-6.662 5.4-12.062 12.062-12.062 6.661 0 12.062 5.4 12.062 12.062zm-14.395 0a2.333 2.333 0 104.666 0 2.333 2.333 0 00-4.666 0z" fill="#F7DD7F"/><g filter="url(#a)" stroke="#D2D2D2" stroke-width="2"><path d="M14.97 18.824A32.786 32.786 0 007.41 36.43c-.001.004.002.008.006.008v0a.007.007 0 00.008-.006 32.771 32.771 0 0123.66-27.967.007.007 0 00.006-.01v0a.007.007 0 00-.01-.004 32.785 32.785 0 00-16.11 10.373zM62.675 63.68a32.787 32.787 0 009.363-16.718.007.007 0 00-.006-.009v0a.007.007 0 00-.008.006 32.77 32.77 0 01-26.459 25.336.007.007 0 00-.006.008v0c0 .005.005.007.009.007a32.786 32.786 0 0017.107-8.63z"/><path d="M26.91 15.166a28.072 28.072 0 00-11.645 11.558.006.006 0 00.003.008v0c.003.002.006 0 .008-.002a28.06 28.06 0 0127.748-14.627.006.006 0 00.007-.005v0a.006.006 0 00-.006-.007 28.072 28.072 0 00-16.115 3.075zM50.419 66.068a28.073 28.073 0 0012.79-10.276.006.006 0 00-.002-.008v0a.006.006 0 00-.008.001 28.06 28.06 0 01-29.127 11.642.006.006 0 00-.007.004v0c-.001.004.001.007.005.008a28.072 28.072 0 0016.349-1.371z"/><path d="M37.869 15.838a24.255 24.255 0 00-13.14 5.318.005.005 0 00-.002.008v0a.005.005 0 00.008 0 24.245 24.245 0 0126.997-2.381c.002.001.006 0 .007-.002v0a.005.005 0 00-.002-.008 24.255 24.255 0 00-13.868-2.935zM39.59 64.252c4.83.082 9.575-1.28 13.625-3.913a.005.005 0 00.002-.007v0a.005.005 0 00-.008-.002 24.245 24.245 0 01-27.097-.457.005.005 0 00-.008 0v0a.005.005 0 00.001.008 24.255 24.255 0 0013.485 4.371z"/></g><defs><filter id="a" x="3.309" y="4.35" width="72.829" height="72.059" filterUnits="userSpaceOnUse" color-interpolation-filters="sRGB"><feFlood flood-opacity="0" result="BackgroundImageFix"/><feBlend in="SourceGraphic" in2="BackgroundImageFix" result="shape"/><feGaussianBlur stdDeviation="1.55" result="effect1_foregroundBlur_3746_209"/></filter></defs></svg>